<svg width="60" height="60" viewBox="0 0 60 60" fill="none" xmlns="http://www.w3.org/2000/svg">
<g clip-path="url(#clip0_10_1613)">
<g filter="url(#filter0_d_10_1613)">
<rect x="3" y="4" width="54" height="52" rx="4" fill="white"/>
<path d="M11.941 9.26587H9.26562V11.9413H11.941V9.26587Z" fill="#7C28D9"/>
<path d="M14.6163 9.26587H11.9409V11.9413H14.6163V9.26587Z" fill="#7C28D9"/>
<path d="M17.2918 9.26587H14.6165V11.9413H17.2918V9.26587Z" fill="#7C28D9"/>
<path d="M19.9671 9.26587H17.2917V11.9413H19.9671V9.26587Z" fill="#7C28D9"/>
<path d="M22.6427 9.26587H19.9673V11.9413H22.6427V9.26587Z" fill="#7C28D9"/>
<path d="M25.318 9.26587H22.6426V11.9413H25.318V9.26587Z" fill="#7C28D9"/>
<path d="M27.9933 9.26587H25.3179V11.9413H27.9933V9.26587Z" fill="#7C28D9"/>
<path d="M34.6815 9.26587H32.0061V11.9413H34.6815V9.26587Z" fill="#7C28D9"/>
<path d="M37.3573 9.26587H34.6819V11.9413H37.3573V9.26587Z" fill="#7C28D9"/>
<path d="M40.0326 9.26587H37.3572V11.9413H40.0326V9.26587Z" fill="#7C28D9"/>
<path d="M42.7079 9.26587H40.0325V11.9413H42.7079V9.26587Z" fill="#7C28D9"/>
<path d="M45.3832 9.26587H42.7078V11.9413H45.3832V9.26587Z" fill="#7C28D9"/>
<path d="M48.0584 9.26587H45.3831V11.9413H48.0584V9.26587Z" fill="#7C28D9"/>
<path d="M50.7342 9.26587H48.0588V11.9413H50.7342V9.26587Z" fill="#7C28D9"/>
<path d="M11.941 11.9412H9.26562V14.6166H11.941V11.9412Z" fill="#7C28D9"/>
<path d="M27.9933 11.9412H25.3179V14.6166H27.9933V11.9412Z" fill="#7C28D9"/>
<path d="M34.6815 11.9413H32.0061V14.6167H34.6815V11.9413Z" fill="#7C28D9"/>
<path d="M50.7342 11.9413H48.0588V14.6167H50.7342V11.9413Z" fill="#7C28D9"/>
<path d="M11.941 14.6167H9.26562V17.2921H11.941V14.6167Z" fill="#7C28D9"/>
<path d="M17.2918 14.6167H14.6165V17.2921H17.2918V14.6167Z" fill="#7C28D9"/>
<path d="M19.9671 14.6167H17.2917V17.2921H19.9671V14.6167Z" fill="#7C28D9"/>
<path d="M22.6427 14.6167H19.9673V17.2921H22.6427V14.6167Z" fill="#7C28D9"/>
<path d="M27.9933 14.6167H25.3179V17.2921H27.9933V14.6167Z" fill="#7C28D9"/>
<path d="M34.6815 14.6167H32.0061V17.2921H34.6815V14.6167Z" fill="#7C28D9"/>
<path d="M40.0326 14.6167H37.3572V17.2921H40.0326V14.6167Z" fill="#7C28D9"/>
<path d="M42.7079 14.6167H40.0325V17.2921H42.7079V14.6167Z" fill="#7C28D9"/>
<path d="M45.3832 14.6167H42.7078V17.2921H45.3832V14.6167Z" fill="#7C28D9"/>
<path d="M50.7342 14.6167H48.0588V17.2921H50.7342V14.6167Z" fill="#7C28D9"/>
<path d="M11.941 17.292H9.26562V19.9674H11.941V17.292Z" fill="#7C28D9"/>
<path d="M17.2918 17.292H14.6165V19.9674H17.2918V17.292Z" fill="#7C28D9"/>
<path d="M19.9671 17.292H17.2917V19.9674H19.9671V17.292Z" fill="#7C28D9"/>
<path d="M22.6427 17.292H19.9673V19.9674H22.6427V17.292Z" fill="#7C28D9"/>
<path d="M27.9933 17.292H25.3179V19.9674H27.9933V17.292Z" fill="#7C28D9"/>
<path d="M34.6815 17.292H32.0061V19.9674H34.6815V17.292Z" fill="#7C28D9"/>
<path d="M40.0326 17.292H37.3572V19.9674H40.0326V17.292Z" fill="#7C28D9"/>
<path d="M42.7079 17.292H40.0325V19.9674H42.7079V17.292Z" fill="#7C28D9"/>
<path d="M45.3832 17.292H42.7078V19.9674H45.3832V17.292Z" fill="#7C28D9"/>
<path d="M50.7342 17.292H48.0588V19.9674H50.7342V17.292Z" fill="#7C28D9"/>
<path d="M11.941 19.9673H9.26562V22.6427H11.941V19.9673Z" fill="#7C28D9"/>
<path d="M17.2918 19.9673H14.6165V22.6427H17.2918V19.9673Z" fill="#7C28D9"/>
<path d="M19.9671 19.9673H17.2917V22.6427H19.9671V19.9673Z" fill="#7C28D9"/>
<path d="M22.6427 19.9673H19.9673V22.6427H22.6427V19.9673Z" fill="#7C28D9"/>
<path d="M27.9933 19.9673H25.3179V22.6427H27.9933V19.9673Z" fill="#7C28D9"/>
<path d="M34.6815 19.9674H32.0061V22.6428H34.6815V19.9674Z" fill="#7C28D9"/>
<path d="M40.0326 19.9674H37.3572V22.6428H40.0326V19.9674Z" fill="#7C28D9"/>
<path d="M42.7079 19.9674H40.0325V22.6428H42.7079V19.9674Z" fill="#7C28D9"/>
<path d="M45.3832 19.9674H42.7078V22.6428H45.3832V19.9674Z" fill="#7C28D9"/>
<path d="M50.7342 19.9674H48.0588V22.6428H50.7342V19.9674Z" fill="#7C28D9"/>
<path d="M11.941 22.6428H9.26562V25.3182H11.941V22.6428Z" fill="#7C28D9"/>
<path d="M27.9933 22.6428H25.3179V25.3182H27.9933V22.6428Z" fill="#7C28D9"/>
<path d="M34.6815 22.6428H32.0061V25.3182H34.6815V22.6428Z" fill="#7C28D9"/>
<path d="M50.7342 22.6428H48.0588V25.3182H50.7342V22.6428Z" fill="#7C28D9"/>
<path d="M11.941 25.3181H9.26562V27.9935H11.941V25.3181Z" fill="#7C28D9"/>
<path d="M14.6163 25.3181H11.9409V27.9935H14.6163V25.3181Z" fill="#7C28D9"/>
<path d="M17.2918 25.3181H14.6165V27.9935H17.2918V25.3181Z" fill="#7C28D9"/>
<path d="M19.9671 25.3181H17.2917V27.9935H19.9671V25.3181Z" fill="#7C28D9"/>
<path d="M22.6427 25.3181H19.9673V27.9935H22.6427V25.3181Z" fill="#7C28D9"/>
<path d="M25.318 25.3181H22.6426V27.9935H25.318V25.3181Z" fill="#7C28D9"/>
<path d="M27.9933 25.3181H25.3179V27.9935H27.9933V25.3181Z" fill="#7C28D9"/>
<path d="M34.6815 25.3182H32.0061V27.9936H34.6815V25.3182Z" fill="#7C28D9"/>
<path d="M37.3573 25.3182H34.6819V27.9936H37.3573V25.3182Z" fill="#7C28D9"/>
<path d="M40.0326 25.3182H37.3572V27.9936H40.0326V25.3182Z" fill="#7C28D9"/>
<path d="M42.7079 25.3182H40.0325V27.9936H42.7079V25.3182Z" fill="#7C28D9"/>
<path d="M45.3832 25.3182H42.7078V27.9936H45.3832V25.3182Z" fill="#7C28D9"/>
<path d="M48.0584 25.3182H45.3831V27.9936H48.0584V25.3182Z" fill="#7C28D9"/>
<path d="M50.7342 25.3182H48.0588V27.9936H50.7342V25.3182Z" fill="#7C28D9"/>
<path d="M36.0196 33.3446H33.3442V36.02H36.0196V33.3446Z" fill="#7C28D9"/>
<path d="M38.6949 33.3446H36.0195V36.02H38.6949V33.3446Z" fill="#7C28D9"/>
<path d="M44.0458 33.3446H41.3704V36.02H44.0458V33.3446Z" fill="#7C28D9"/>
<path d="M11.941 32.0065H9.26562V34.6819H11.941V32.0065Z" fill="#7C28D9"/>
<path d="M14.6163 32.0065H11.9409V34.6819H14.6163V32.0065Z" fill="#7C28D9"/>
<path d="M17.2918 32.0065H14.6165V34.6819H17.2918V32.0065Z" fill="#7C28D9"/>
<path d="M19.9671 32.0065H17.2917V34.6819H19.9671V32.0065Z" fill="#7C28D9"/>
<path d="M22.6427 32.0065H19.9673V34.6819H22.6427V32.0065Z" fill="#7C28D9"/>
<path d="M25.318 32.0065H22.6426V34.6819H25.318V32.0065Z" fill="#7C28D9"/>
<path d="M27.9933 32.0065H25.3179V34.6819H27.9933V32.0065Z" fill="#7C28D9"/>
<path d="M41.3702 36.02H38.6948V38.6954H41.3702V36.02Z" fill="#7C28D9"/>
<path d="M46.721 33.3446H44.0457V36.02H46.721V33.3446Z" fill="#7C28D9"/>
<path d="M11.941 34.6819H9.26562V37.3573H11.941V34.6819Z" fill="#7C28D9"/>
<path d="M27.9933 34.6819H25.3179V37.3573H27.9933V34.6819Z" fill="#7C28D9"/>
<path d="M41.3702 33.3446H38.6948V36.02H41.3702V33.3446Z" fill="#7C28D9"/>
<path d="M49.3966 44.0461H46.7212V46.7215H49.3966V44.0461Z" fill="#7C28D9"/>
<path d="M49.3966 36.02H46.7212V38.6954H49.3966V36.02Z" fill="#7C28D9"/>
<path d="M49.3966 46.7216H46.7212V49.3969H49.3966V46.7216Z" fill="#7C28D9"/>
<path d="M11.941 37.3573H9.26562V40.0327H11.941V37.3573Z" fill="#7C28D9"/>
<path d="M17.2918 37.3573H14.6165V40.0327H17.2918V37.3573Z" fill="#7C28D9"/>
<path d="M19.9671 37.3573H17.2917V40.0327H19.9671V37.3573Z" fill="#7C28D9"/>
<path d="M22.6427 37.3573H19.9673V40.0327H22.6427V37.3573Z" fill="#7C28D9"/>
<path d="M27.9933 37.3573H25.3179V40.0327H27.9933V37.3573Z" fill="#7C28D9"/>
<path d="M36.0196 36.02H33.3442V38.6954H36.0196V36.02Z" fill="#7C28D9"/>
<path d="M49.3966 41.3708H46.7212V44.0462H49.3966V41.3708Z" fill="#7C28D9"/>
<path d="M11.941 40.0327H9.26562V42.7081H11.941V40.0327Z" fill="#7C28D9"/>
<path d="M17.2918 40.0327H14.6165V42.7081H17.2918V40.0327Z" fill="#7C28D9"/>
<path d="M19.9671 40.0327H17.2917V42.7081H19.9671V40.0327Z" fill="#7C28D9"/>
<path d="M22.6427 40.0327H19.9673V42.7081H22.6427V40.0327Z" fill="#7C28D9"/>
<path d="M27.9933 40.0327H25.3179V42.7081H27.9933V40.0327Z" fill="#7C28D9"/>
<path d="M36.0196 38.6954H33.3442V41.3708H36.0196V38.6954Z" fill="#7C28D9"/>
<path d="M38.6949 38.6954H36.0195V41.3708H38.6949V38.6954Z" fill="#7C28D9"/>
<path d="M46.721 38.6954H44.0457V41.3708H46.721V38.6954Z" fill="#7C28D9"/>
<path d="M11.941 42.7081H9.26562V45.3835H11.941V42.7081Z" fill="#7C28D9"/>
<path d="M17.2918 42.7081H14.6165V45.3835H17.2918V42.7081Z" fill="#7C28D9"/>
<path d="M19.9671 42.7081H17.2917V45.3835H19.9671V42.7081Z" fill="#7C28D9"/>
<path d="M22.6427 42.7081H19.9673V45.3835H22.6427V42.7081Z" fill="#7C28D9"/>
<path d="M27.9933 42.7081H25.3179V45.3835H27.9933V42.7081Z" fill="#7C28D9"/>
<path d="M36.0196 41.3708H33.3442V44.0462H36.0196V41.3708Z" fill="#7C28D9"/>
<path d="M41.3702 41.3708H38.6948V44.0462H41.3702V41.3708Z" fill="#7C28D9"/>
<path d="M11.941 45.3834H9.26562V48.0588H11.941V45.3834Z" fill="#7C28D9"/>
<path d="M27.9933 45.3834H25.3179V48.0588H27.9933V45.3834Z" fill="#7C28D9"/>
<path d="M36.0196 44.0461H33.3442V46.7215H36.0196V44.0461Z" fill="#7C28D9"/>
<path d="M41.3702 38.6954H38.6948V41.3708H41.3702V38.6954Z" fill="#7C28D9"/>
<path d="M41.3702 44.0461H38.6948V46.7215H41.3702V44.0461Z" fill="#7C28D9"/>
<path d="M44.0458 41.3708H41.3704V44.0462H44.0458V41.3708Z" fill="#7C28D9"/>
<path d="M11.941 48.0588H9.26562V50.7342H11.941V48.0588Z" fill="#7C28D9"/>
<path d="M14.6163 48.0588H11.9409V50.7342H14.6163V48.0588Z" fill="#7C28D9"/>
<path d="M17.2918 48.0588H14.6165V50.7342H17.2918V48.0588Z" fill="#7C28D9"/>
<path d="M19.9671 48.0588H17.2917V50.7342H19.9671V48.0588Z" fill="#7C28D9"/>
<path d="M22.6427 48.0588H19.9673V50.7342H22.6427V48.0588Z" fill="#7C28D9"/>
<path d="M25.318 48.0588H22.6426V50.7342H25.318V48.0588Z" fill="#7C28D9"/>
<path d="M27.9933 48.0588H25.3179V50.7342H27.9933V48.0588Z" fill="#7C28D9"/>
<path d="M38.6949 46.7216H36.0195V49.3969H38.6949V46.7216Z" fill="#7C28D9"/>
<path d="M46.721 46.7216H44.0457V49.3969H46.721V46.7216Z" fill="#7C28D9"/>
</g>
</g>
<defs>
<filter id="filter0_d_10_1613" x="-1" y="1" width="62" height="60" filterUnits="userSpaceOnUse" color-interpolation-filters="sRGB">
<feFlood flood-opacity="0" result="BackgroundImageFix"/>
<feColorMatrix in="SourceAlpha" type="matrix" values="0 0 0 0 0 0 0 0 0 0 0 0 0 0 0 0 0 0 127 0" result="hardAlpha"/>
<feMorphology radius="1" operator="dilate" in="SourceAlpha" result="effect1_dropShadow_10_1613"/>
<feOffset dy="1"/>
<feGaussianBlur stdDeviation="1.5"/>
<feColorMatrix type="matrix" values="0 0 0 0 0 0 0 0 0 0 0 0 0 0 0 0 0 0 0.15 0"/>
<feBlend mode="normal" in2="BackgroundImageFix" result="effect1_dropShadow_10_1613"/>
<feBlend mode="normal" in="SourceGraphic" in2="effect1_dropShadow_10_1613" result="shape"/>
</filter>
<clipPath id="clip0_10_1613">
<rect width="60" height="60" fill="white"/>
</clipPath>
</defs>
</svg>
